<svg xmlns="http://www.w3.org/2000/svg" width="62" height="62" fill="none" viewBox="0 0 62 62">
    <path fill="#DCE9F4" d="M25.109 37.429H3.145v20.893h21.964V37.429zM25.644 4.214H3.68v20.893h21.964V4.214zM58.32 37.429H36.356v20.893H58.32V37.429zM59.394 4.214H37.43v20.893h21.964V4.214z"/>
    <path fill="#146EB4" stroke="#146EB4" stroke-width=".1" d="M4.333.95C2.493.95.95 2.494.95 4.333v19.334c0 1.84 1.544 3.383 3.383 3.383h20c1.84 0 3.384-1.544 3.384-3.383V4.333c0-1.84-1.544-3.383-3.384-3.383h-20zm33.334 0c-1.84 0-3.384 1.542-3.384 3.383v19.334c0 1.838 1.544 3.383 3.384 3.383h20c1.84 0 3.383-1.544 3.383-3.383V4.333c0-1.84-1.544-3.383-3.383-3.383h-20zM5.05 5.05h18.567v17.9H5.05V5.05zm33.333 0H56.95v17.9H38.383V5.05zm-34.05 29.9c-1.84 0-3.383 1.544-3.383 3.383v19.334c0 1.84 1.544 3.383 3.383 3.383h20c1.84 0 3.384-1.544 3.384-3.383V38.333c0-1.84-1.544-3.383-3.384-3.383h-20zm33.334 0c-1.84 0-3.384 1.544-3.384 3.383v19.334c0 1.84 1.544 3.383 3.384 3.383h20c1.84 0 3.383-1.544 3.383-3.383V38.333c0-1.84-1.544-3.383-3.383-3.383h-20zM5.05 39.05h18.567v17.9H5.05v-17.9zm33.333 0H56.95v17.9H38.383v-17.9z"/>
</svg>
