<svg xmlns="http://www.w3.org/2000/svg" width="60" height="60" fill="none" viewBox="0 0 60 60">
    <path fill="#DCE9F4" d="M48.402 51.933l-12.605 6.05h-7.06l-10.083-2.017-8.068-7.563L3.023 38.32l.505-12.1 2.52-10.589 7.564-8.571L24.2 3.529h11.092l10.084 3.53 8.572 10.588 4.033 11.092-3.025 12.101-6.554 11.093z"/>
    <path fill="#146EB4" fill-rule="evenodd" d="M30 0c16.569 0 30 13.431 30 30 0 16.569-13.431 30-30 30C13.431 60 0 46.569 0 30 0 13.431 13.431 0 30 0zm-4.059 3.839C13.817 5.704 4.406 15.796 3.587 28.235h13.42c.506-8.854 3.574-17.368 8.934-24.396zm-8.933 27.926H3.588C4.407 44.224 13.847 54.329 26 56.17c-5.324-7.067-8.476-15.527-8.992-24.405zM34 56.17c12.152-1.841 21.593-11.946 22.413-24.405H42.992C42.476 40.643 39.324 49.103 34 56.17zm5.456-24.405c-.55 8.731-3.872 17.023-9.456 23.777-5.584-6.754-8.905-15.046-9.456-23.777h18.912zm0-3.53H20.543c.542-8.76 3.802-17.122 9.441-23.796 5.593 6.757 8.92 15.056 9.472 23.796zm3.536 0h13.42C55.593 15.776 46.153 5.671 34 3.83c5.324 7.067 8.476 15.527 8.992 24.405z" clip-rule="evenodd"/>
</svg>
