<svg xmlns="http://www.w3.org/2000/svg" width="60" height="60" fill="none" viewBox="0 0 60 60">
    <path fill="#DCE9F4" d="M30 58.235c15.595 0 28.236-12.641 28.236-28.235S45.595 1.765 30.001 1.765 1.766 14.406 1.766 30 14.407 58.235 30 58.235z"/>
    <path fill="#146EB4" fill-rule="evenodd" d="M30 3.53C15.38 3.53 3.53 15.38 3.53 30S15.38 56.47 30 56.47 56.47 44.62 56.47 30 44.62 3.53 30 3.53zM0 30C0 13.431 13.431 0 30 0c16.569 0 30 13.431 30 30 0 16.569-13.431 30-30 30C13.431 60 0 46.569 0 30z" clip-rule="evenodd"/>
    <path fill="#146EB4" d="M26.01 15.126c.642 0 1.162.52 1.162 1.162v7.263c0 2.645-1.87 4.86-4.358 5.396v14.765c0 .642-.52 1.162-1.162 1.162-.641 0-1.162-.52-1.162-1.162V28.947c-2.487-.535-4.357-2.751-4.357-5.396v-7.263c0-.642.52-1.162 1.162-1.162.642 0 1.162.52 1.162 1.162v7.263c0 1.762 1.433 3.195 3.195 3.195 1.762 0 3.196-1.433 3.196-3.195v-7.263c0-.642.52-1.162 1.162-1.162zm11.388 0c1.548 0 3.004 1.1 4.1 3.1.89 1.62 1.42 3.61 1.42 5.325 0 2.645-1.87 4.86-4.358 5.396v14.765c0 .642-.52 1.162-1.162 1.162-.642 0-1.162-.52-1.162-1.162V28.947c-2.487-.535-4.357-2.751-4.357-5.396 0-1.714.53-3.705 1.42-5.325 1.096-2 2.552-3.1 4.1-3.1zm0 2.324c-.631 0-1.422.726-2.062 1.893-.7 1.274-1.133 2.886-1.133 4.208 0 1.762 1.433 3.195 3.195 3.195 1.762 0 3.196-1.433 3.196-3.195 0-1.322-.434-2.934-1.133-4.208-.641-1.168-1.431-1.893-2.063-1.893zm-15.746-2.324c.642 0 1.162.52 1.162 1.162v7.088c0 .642-.52 1.162-1.162 1.162-.641 0-1.162-.52-1.162-1.162v-7.088c0-.642.52-1.162 1.162-1.162z"/>
    <path fill="#146EB4" fill-rule="evenodd" d="M17.297 15.378c-.503 0-.91.408-.91.91v7.263c0 2.523 1.785 4.639 4.159 5.15l.199.042v14.969c0 .503.407.91.91.91.502 0 .91-.407.91-.91V28.743l.198-.042c2.374-.511 4.16-2.627 4.16-5.15v-7.263c0-.502-.408-.91-.91-.91-.503 0-.91.408-.91.91v7.263c0 1.901-1.547 3.448-3.449 3.448-1.9 0-3.447-1.547-3.447-3.448v-7.263c0-.502-.408-.91-.91-.91zm-1.414.91c0-.78.633-1.414 1.414-1.414.781 0 1.414.633 1.414 1.414v7.263c0 1.623 1.32 2.943 2.944 2.943 1.622 0 2.943-1.32 2.943-2.943v-7.263c0-.78.633-1.414 1.414-1.414.781 0 1.414.633 1.414 1.414v7.263c0 2.695-1.856 4.964-4.357 5.596v14.565c0 .781-.633 1.414-1.415 1.414-.78 0-1.414-.633-1.414-1.414V29.147c-2.5-.632-4.357-2.9-4.357-5.596v-7.263zm5.771-.91c-.502 0-.91.408-.91.91v7.088c0 .503.408.91.91.91.503 0 .91-.407.91-.91v-7.088c0-.502-.407-.91-.91-.91zm-1.414.91c0-.78.634-1.414 1.415-1.414.78 0 1.414.633 1.414 1.414v7.088c0 .781-.633 1.415-1.415 1.415-.78 0-1.414-.634-1.414-1.415v-7.088zm17.16-.91c-1.415 0-2.803 1.009-3.879 2.969-.87 1.586-1.388 3.535-1.388 5.204 0 2.523 1.784 4.639 4.158 5.15l.2.042v14.969c0 .503.407.91.91.91.502 0 .91-.407.91-.91V28.743l.198-.042c2.374-.511 4.159-2.627 4.159-5.15 0-1.669-.518-3.618-1.389-5.204-1.075-1.96-2.463-2.969-3.879-2.969zm-4.32 2.727c1.117-2.038 2.641-3.231 4.32-3.231 1.68 0 3.204 1.193 4.321 3.23.908 1.655 1.451 3.687 1.451 5.447 0 2.695-1.857 4.964-4.357 5.596v14.565c0 .781-.634 1.414-1.415 1.414-.78 0-1.414-.633-1.414-1.414V29.147c-2.5-.632-4.357-2.9-4.357-5.596 0-1.76.543-3.792 1.45-5.446zm3.122-.332c.376-.345.79-.575 1.198-.575.408 0 .823.23 1.199.575.382.35.755.848 1.085 1.45.717 1.307 1.164 2.96 1.164 4.328 0 1.901-1.546 3.448-3.448 3.448-1.9 0-3.447-1.547-3.447-3.448 0-1.368.447-3.021 1.164-4.329.33-.6.703-1.098 1.085-1.449zm.341.372c-.331.304-.673.753-.984 1.32-.68 1.24-1.102 2.811-1.102 4.086 0 1.623 1.32 2.943 2.943 2.943s2.944-1.32 2.944-2.943c0-1.275-.422-2.846-1.102-4.086-.311-.567-.653-1.016-.984-1.32-.338-.31-.634-.443-.858-.443-.223 0-.52.133-.857.443z" clip-rule="evenodd"/>
</svg>
