<svg xmlns="http://www.w3.org/2000/svg" width="60" height="60" fill="none" viewBox="0 0 60 60">
    <path fill="#DCE9F4" d="M55.971 27.18c0 7.31-6.18 13.49-13.49 13.49h-5.64c-3.54 0-6.64 3.1-6.64 6.64 0 1.81.52 3.26 1.55 4.29.4.4.87.87.87 1.75 0 1.32-1.3 2.62-2.62 2.62-6.87 0-13.38-2.72-18.31-7.66-4.95-4.93-7.66-11.44-7.66-18.31 0-6.87 2.72-13.38 7.66-18.31 4.93-4.95 11.44-7.66 18.31-7.66 14.33 0 25.97 10.39 25.97 23.15z"/>
    <path fill="#146EB4" d="M30 0C22.07 0 14.56 3.14 8.85 8.85 3.14 14.56 0 22.07 0 30c0 7.93 3.14 15.44 8.85 21.15C14.56 56.86 22.07 60 30 60c3.6 0 6.64-3.23 6.64-7.05 0-1.81-.52-3.26-1.55-4.29-.4-.4-.87-.87-.87-1.75 0-1.32 1.3-2.62 2.62-2.62h5.64C51.98 44.3 60 36.27 60 26.78 60 12.01 46.54 0 30 0zm.2 47.32c0 1.81.52 3.26 1.55 4.29.4.4.87.87.87 1.75 0 1.32-1.3 2.62-2.62 2.62-6.87 0-13.38-2.72-18.31-7.66C6.74 43.38 4.03 36.87 4.03 30c0-6.87 2.72-13.38 7.66-18.31C16.62 6.74 23.13 4.03 30 4.03c14.33 0 25.97 10.39 25.97 23.15 0 7.31-6.18 13.49-13.49 13.49h-5.64c-3.54 0-6.64 3.1-6.64 6.65z"/>
    <path fill="#146EB4" d="M13.49 31.29c2.115 0 3.83-1.715 3.83-3.83s-1.715-3.83-3.83-3.83-3.83 1.715-3.83 3.83 1.715 3.83 3.83 3.83zM26.172 15.38c0 2.11-1.72 3.83-3.83 3.83-2.11 0-3.83-1.71-3.83-3.83 0-2.1 1.71-3.83 3.83-3.83 2.11.01 3.83 1.73 3.83 3.83zM37.65 19.21c2.116 0 3.83-1.715 3.83-3.83s-1.714-3.83-3.83-3.83c-2.115 0-3.83 1.715-3.83 3.83s1.715 3.83 3.83 3.83zM50.34 27.46c0 2.11-1.72 3.83-3.83 3.83-2.11 0-3.83-1.71-3.83-3.83 0-2.1 1.71-3.83 3.83-3.83 2.1.01 3.83 1.73 3.83 3.83z"/>
</svg>
