<svg xmlns="http://www.w3.org/2000/svg" width="56" height="62" fill="none" viewBox="0 0 56 62">
    <path fill="#DCE9F4" fill-rule="evenodd" d="M29.4 38.32c.07-.68-.13-1.37-.59-1.89-.46-.53-1.12-.83-1.81-.83H5.05L28.53 7.24l-1 17c-.07.68-.46.49 0 1 .46.52.32 1 1 1h22l-23.13 28 2-15.92z" clip-rule="evenodd"/>
    <path fill="#146EB4" fill-rule="evenodd" d="M55.51 24.41v-.01c-.32-.69-1.03-1.14-1.8-1.14H30.26l2.57-20.72c.11-.87-.38-1.73-1.18-2.09-.23-.1-.5-.15-.78-.15-.6 0-1.16.26-1.54.72L.76 35.46c-.49.59-.6 1.41-.27 2.14.32.69 1.03 1.14 1.8 1.14h23.45l-2.57 20.72c-.11.87.38 1.73 1.18 2.08.79.35 1.77.12 2.32-.55l28.56-34.44c.5-.59.61-1.43.28-2.14zM27.95 53.18l2.03-16.19c.06-.58-.11-1.15-.48-1.56-.38-.44-.93-.69-1.51-.69H6.53L28.05 8.82l-2.03 16.19c-.07.57.11 1.15.48 1.56.38.44.93.69 1.5.69h21.46L27.95 53.18z" clip-rule="evenodd"/>
</svg>
