<svg xmlns="http://www.w3.org/2000/svg" width="60" height="60" fill="none" viewBox="0 0 60 60">
    <path fill="#DCE9F4" d="M30 58.235c15.595 0 28.236-12.641 28.236-28.235S45.595 1.765 30.001 1.765 1.766 14.406 1.766 30 14.407 58.235 30 58.235z"/>
    <path fill="#146EB4" fill-rule="evenodd" d="M30 3.53C15.38 3.53 3.53 15.38 3.53 30S15.38 56.47 30 56.47 56.47 44.62 56.47 30 44.62 3.53 30 3.53zM0 30C0 13.431 13.431 0 30 0c16.569 0 30 13.431 30 30 0 16.569-13.431 30-30 30C13.431 60 0 46.569 0 30z" clip-rule="evenodd"/>
    <path fill="#146EB4" d="M37.732 24.182h-1.73c-.273-1.184-.729-2.186-1.457-3.096h3.187c.82 0 1.548-.728 1.548-1.548 0-.82-.729-1.548-1.548-1.548H22.07c-.82 0-1.548.729-1.548 1.548 0 .82.729 1.548 1.548 1.548h6.283c2.003 0 3.733 1.275 4.37 3.096H22.162c-.82 0-1.547.728-1.547 1.548 0 .819.728 1.547 1.547 1.547h10.653c-.637 1.821-2.367 3.096-4.37 3.096h-6.283c-.182 0-.364 0-.637.091-.364.182-.728.455-.82.82-.182.364-.182.819 0 1.183.092.182.183.364.365.547l12.474 12.473c.273.273.728.456 1.092.456.364 0 .82-.182 1.093-.456.637-.637.637-1.639 0-2.185l-9.834-9.742h2.459c3.733 0 6.92-2.64 7.648-6.283h1.73c.82 0 1.548-.728 1.548-1.547 0-.82-.638-1.548-1.548-1.548z"/>
    <path fill="#146EB4" fill-rule="evenodd" d="M20.422 19.537c0-.875.773-1.648 1.649-1.648h15.66c.875 0 1.649.773 1.649 1.648 0 .876-.774 1.65-1.649 1.65h-2.98c.65.859 1.069 1.8 1.33 2.893h1.65c.97 0 1.649.778 1.649 1.649 0 .875-.774 1.649-1.649 1.649h-1.648c-.768 3.646-3.976 6.282-7.73 6.282H26.14l9.657 9.567c.684.59.675 1.658.002 2.33-.292.293-.773.486-1.163.486-.391 0-.872-.193-1.164-.485L20.998 33.084c-.194-.194-.291-.388-.382-.57l-.001-.002c-.195-.39-.197-.874-.005-1.265.107-.404.505-.692.87-.874l.006-.003.006-.002c.29-.096.484-.096.67-.096h6.282c1.91 0 3.566-1.185 4.226-2.894H22.162c-.875 0-1.65-.774-1.65-1.65 0-.874.774-1.648 1.65-1.648h10.417c-.66-1.71-2.316-2.894-4.226-2.894h-6.282c-.876 0-1.65-.773-1.65-1.649zm1.649-1.447c-.764 0-1.447.684-1.447 1.447 0 .764.683 1.447 1.447 1.447h6.282c2.047 0 3.814 1.303 4.466 3.164l.047.134H22.162c-.764 0-1.447.683-1.447 1.447s.683 1.447 1.447 1.447h10.795l-.047.134c-.652 1.86-2.42 3.163-4.466 3.163h-6.282c-.178 0-.345 0-.6.084-.357.18-.68.434-.76.75l-.002.011-.005.01c-.168.336-.168.758 0 1.093.091.182.176.351.345.52l12.474 12.474c.254.254.684.426 1.022.426.337 0 .767-.172 1.02-.426.602-.601.593-1.534.007-2.037l-.006-.005-10.007-9.915h2.703c3.685 0 6.83-2.606 7.55-6.201l.016-.081h1.812c.764 0 1.447-.683 1.447-1.447 0-.768-.596-1.447-1.447-1.447h-1.81l-.018-.078c-.27-1.171-.72-2.159-1.437-3.056l-.131-.164h3.396c.764 0 1.447-.683 1.447-1.447 0-.763-.683-1.447-1.447-1.447h-15.66z" clip-rule="evenodd"/>
</svg>
