<svg xmlns="http://www.w3.org/2000/svg" width="60" height="60" fill="none" viewBox="0 0 60 60">
    <path fill="#DCE9F4" d="M39.68 21.31v33.45c0 .65-.62 1.27-1.28 1.27H5.2c-.65 0-1.27-.62-1.27-1.27V21.31c0-.66.62-1.28 1.27-1.28h33.2c.66.01 1.28.63 1.28 1.28z"/>
    <path fill="#DCE9F4" d="M55.629 5.24v33.45c0 .66-.62 1.28-1.27 1.28h-9.49c-.66 0-1.27-.62-1.27-1.28V17.84c0-1.06-.69-2.2-2.19-2.2h-20.26c-.65 0-1.27-.62-1.27-1.28V5.24c0-.66.62-1.28 1.27-1.28h33.21c.65 0 1.27.62 1.27 1.28z"/>
    <path fill="#146EB4" d="M57.39 0H17.71c-1.14 0-1.75.78-1.75 2.2v13.88H2.18C.77 16.07 0 16.69 0 17.84V57.8C0 58.85.68 60 2.18 60h39.68c1.06 0 2.18-1.14 2.18-2.2V43.93h13.77c1.05 0 2.19-.69 2.19-2.2V2.2C59.67.9 58.63 0 57.39 0zm-1.76 38.69c0 .66-.62 1.28-1.27 1.28h-9.49c-.66 0-1.27-.62-1.27-1.28V17.84c0-1.06-.69-2.2-2.19-2.2H21.15c-.65 0-1.27-.62-1.27-1.28V5.24c0-.66.62-1.28 1.27-1.28h33.21c.65 0 1.27.62 1.27 1.28v33.45zM3.93 21.31c0-.66.62-1.28 1.27-1.28h33.2c.66 0 1.28.62 1.28 1.28v33.45c0 .65-.62 1.27-1.28 1.27H5.2c-.65 0-1.27-.62-1.27-1.27V21.31z"/>
</svg>
